<svg width="512" height="512" viewBox="0 0 512 512" fill="none" xmlns="http://www.w3.org/2000/svg">
<g clip-path="url(#clip0)">
<mask id="mask0" mask-type="alpha" maskUnits="userSpaceOnUse" x="0" y="0" width="512" height="512">
<path fill-rule="evenodd" clip-rule="evenodd" d="M512 0H0V512H512V0ZM346.425 263H368.078V147.781H344.275V217.405L298.869 147.781H277.213V263H301.16V193.713L346.425 263ZM296.16 152.781L349.275 234.225V152.781H363.078V258H349.131L296.16 176.918V258H282.213V152.781H296.16ZM468.01 237.877L468.015 237.866C471.83 229.387 473.658 219.652 473.658 208.787V202.139C473.658 191.322 471.83 181.616 468.019 173.142C464.198 164.596 458.624 157.886 451.243 153.254C443.949 148.598 435.581 146.336 426.311 146.336C417.148 146.336 408.826 148.64 401.501 153.34C394.184 158.017 388.623 164.737 384.757 173.263C380.896 181.779 379.035 191.441 379.035 202.139V209.751L379.035 209.775C379.137 220.278 381.053 229.747 384.921 238.067L384.929 238.085L384.938 238.102C388.866 246.383 394.45 252.941 401.721 257.588L401.733 257.595L401.744 257.602C409.025 262.201 417.315 264.445 426.455 264.445C435.763 264.445 444.138 262.213 451.397 257.593C458.669 252.966 464.188 246.316 468.01 237.877ZM448.568 157.479C455.024 161.525 459.986 167.427 463.455 175.184C466.924 182.892 468.658 191.877 468.658 202.139V208.787C468.658 219.097 466.924 228.106 463.455 235.814C459.986 243.475 455.072 249.328 448.713 253.375C442.354 257.422 434.934 259.445 426.455 259.445C418.169 259.445 410.822 257.422 404.414 253.375C398.007 249.28 393.02 243.475 389.455 235.959C385.938 228.395 384.132 219.651 384.035 209.727V202.139C384.035 192.021 385.794 183.085 389.311 175.328C392.827 167.572 397.79 161.646 404.197 157.551C410.653 153.408 418.024 151.336 426.311 151.336C434.742 151.336 442.161 153.383 448.568 157.479ZM443.336 176.3L443.342 176.307L443.347 176.314C447.45 181.758 449.855 190.087 449.855 201.994V209.769C449.714 221.368 447.301 229.529 443.273 234.903C439.407 240.015 434.024 242.666 426.455 242.666C419.06 242.666 413.574 239.919 409.455 234.371C405.235 228.576 402.838 220.23 402.838 208.787V201.086C402.979 189.88 405.417 181.816 409.562 176.316C413.627 170.936 419.029 168.26 426.311 168.26C433.885 168.26 439.352 170.974 443.336 176.3ZM447.268 237.91C452.182 231.358 454.711 221.988 454.855 209.799V201.994C454.855 189.516 452.35 179.953 447.34 173.305C442.329 166.608 435.32 163.26 426.311 163.26C417.542 163.26 410.629 166.608 405.57 173.305C400.56 179.953 397.982 189.203 397.838 201.055V208.787C397.838 220.88 400.367 230.395 405.426 237.332C410.533 244.221 417.542 247.666 426.455 247.666C435.416 247.666 442.354 244.414 447.268 237.91Z" fill="#C4C4C4"/>
</mask>
<g mask="url(#mask0)">
<path d="M510.864 133.632C508.515 129.545 503.299 128.138 499.214 130.485L429.029 170.813C426.415 168.664 432.189 172.22 341.867 120.076C340.331 119.189 338.72 118.48 337.067 117.939V76.2545C351.772 72.4561 362.667 59.077 362.667 43.2019C362.667 24.3807 347.355 9.06878 328.533 9.06878C309.712 9.06878 294.4 24.3807 294.4 43.2019C294.4 47.9144 298.221 51.7352 302.934 51.7352C307.646 51.7352 311.467 47.9144 311.467 43.2019C311.467 33.7918 319.123 26.1353 328.533 26.1353C337.944 26.1353 345.6 33.7918 345.6 43.2019C345.6 52.612 337.944 60.2685 328.533 60.2685C323.821 60.2685 320 64.0892 320 68.8017V118.325C317.122 119.412 324.322 115.432 232.534 168.421C231.225 169.178 230.007 170.05 228.871 171.008C163.479 133.254 168.197 135.669 165.836 135.336C162.488 134.866 159.153 136.434 157.381 139.317C143.474 161.953 119.333 175.468 92.8015 175.468C51.0429 175.468 17.0687 141.494 17.0687 99.7349C17.0687 57.9762 51.0429 24.002 92.8015 24.002C136.312 24.002 170.981 60.7282 168.4 104.295C168.123 109 171.711 113.038 176.416 113.317C181.125 113.605 185.159 110.006 185.438 105.302C188.617 51.6541 145.823 6.93652 92.8026 6.93652C41.6328 6.93652 0.00319084 48.5661 0.00319084 99.7359C0.00319084 150.906 41.6328 192.535 92.8026 192.535C122.518 192.535 149.778 178.697 167.255 155.14L220.212 185.715C219.9 187.308 219.735 188.939 219.735 190.592C219.735 296.683 219.62 288.26 220.005 290.921L160.782 324.951C156.699 327.296 155.237 332.557 157.705 336.705C158.473 338.086 158.91 339.442 158.91 341.092V399.582C158.91 402.62 157.275 405.452 154.643 406.971L103.99 436.216C101.358 437.736 98.0879 437.736 95.4565 436.216L44.8029 406.971C42.1715 405.452 40.5363 402.62 40.5363 399.582V341.092C40.5363 338.053 42.1715 335.222 44.8029 333.702L95.4554 304.458C98.0879 302.939 101.358 302.939 103.989 304.458L125.868 317.09C129.948 319.447 135.167 318.047 137.524 313.967C139.881 309.886 138.482 304.667 134.401 302.311C110.374 288.438 111.107 288.652 107.735 287.544V244.802C107.735 240.089 103.914 236.268 99.2015 236.268C94.489 236.268 90.6682 240.089 90.6682 244.802V287.919C87.816 288.995 91.385 287.101 36.2686 318.922C28.3731 323.48 23.4686 331.975 23.4686 341.091C23.4686 404.64 23.3225 400.644 23.811 403.654L4.2837 414.873C0.197323 417.221 -1.21173 422.437 1.13598 426.523C3.49224 430.624 8.71247 432.011 12.786 429.671L31.9891 418.637C34.8414 421.2 32.2803 419.45 86.9221 450.996C88.1296 451.692 89.385 452.27 90.6682 452.754V496.531C90.6682 501.244 94.489 505.065 99.2015 505.065C103.914 505.065 107.735 501.244 107.735 496.531V453.129C111.31 451.955 108.508 453.312 163.176 421.75C171.071 417.192 175.975 408.696 175.975 399.579C175.975 336.001 176.164 339.59 175.495 336.177L227.944 306.04C229.331 307.328 230.86 308.479 232.533 309.446C324.205 362.375 317.13 358.459 319.999 359.542V420.811C305.294 424.61 294.399 437.989 294.399 453.864C294.399 472.685 309.711 487.997 328.532 487.997C347.354 487.997 362.665 472.685 362.665 453.864C362.665 449.151 358.845 445.331 354.132 445.331C349.42 445.331 345.599 449.151 345.599 453.864C345.599 463.274 337.942 470.93 328.532 470.93C319.122 470.93 311.466 463.274 311.466 453.864C311.466 444.454 319.122 436.797 328.532 436.797C333.245 436.797 337.066 432.977 337.066 428.264V359.926C338.719 359.384 340.33 358.675 341.866 357.789C433.16 305.084 426.918 308.917 429.587 306.595L461.132 324.809C465.199 327.157 470.425 325.78 472.789 321.686C475.145 317.604 473.746 312.385 469.665 310.029L431.942 288.25C428.072 286.014 422.805 287.018 420.188 291.543C419.441 292.839 418.36 293.918 417.065 294.666L333.332 343.009C330.7 344.528 327.43 344.528 324.799 343.009L241.066 294.666C238.435 293.147 236.8 290.315 236.8 287.276V190.591C236.8 187.552 238.435 184.72 241.066 183.201L324.799 134.858C327.43 133.338 330.7 133.339 333.332 134.858L417.065 183.201C419.697 184.72 421.332 187.552 421.332 190.591V251.235C421.332 255.947 425.153 259.768 429.865 259.768C434.578 259.768 438.398 255.947 438.398 251.235C438.398 185.665 438.621 189.073 437.863 185.421L507.716 145.283C511.803 142.935 513.212 137.719 510.864 133.632V133.632Z" fill="black"/>
<path d="M138.667 78.4006C138.667 73.6881 134.846 69.8673 130.134 69.8673H55.4674C50.7549 69.8673 46.9341 73.6881 46.9341 78.4006C46.9341 83.1131 50.7549 86.9339 55.4674 86.9339H130.134C134.847 86.9339 138.667 83.1142 138.667 78.4006Z" fill="black"/>
<path d="M55.4674 112.534C50.7549 112.534 46.9341 116.354 46.9341 121.067C46.9341 125.779 50.7549 129.6 55.4674 129.6H108.8C113.513 129.6 117.334 125.779 117.334 121.067C117.334 116.354 113.513 112.534 108.8 112.534H55.4674Z" fill="black"/>
</g>
<path d="M509.168 270H477.958V265.649L494.447 247.329C496.889 244.559 498.569 242.312 499.485 240.589C500.423 238.845 500.892 237.045 500.892 235.191C500.892 232.705 500.139 230.666 498.634 229.074C497.129 227.482 495.123 226.686 492.615 226.686C489.605 226.686 487.26 227.547 485.581 229.27C483.924 230.971 483.095 233.348 483.095 236.402H477.042C477.042 232.018 478.449 228.474 481.263 225.77C484.098 223.065 487.882 221.713 492.615 221.713C497.042 221.713 500.543 222.88 503.116 225.213C505.69 227.525 506.977 230.611 506.977 234.472C506.977 239.161 503.989 244.744 498.013 251.222L485.254 265.06H509.168V270Z" fill="black"/>
<path d="M363.078 258H349.131L296.16 176.918V258H282.213V152.781H296.16L349.275 234.225V152.781H363.078V258ZM468.658 208.787C468.658 219.097 466.924 228.106 463.455 235.814C459.986 243.475 455.072 249.328 448.713 253.375C442.354 257.422 434.934 259.445 426.455 259.445C418.169 259.445 410.822 257.422 404.414 253.375C398.007 249.28 393.02 243.475 389.455 235.959C385.938 228.395 384.132 219.651 384.035 209.727V202.139C384.035 192.021 385.794 183.085 389.311 175.328C392.827 167.572 397.79 161.646 404.197 157.551C410.653 153.408 418.024 151.336 426.311 151.336C434.742 151.336 442.161 153.383 448.568 157.479C455.024 161.525 459.986 167.427 463.455 175.184C466.924 182.892 468.658 191.877 468.658 202.139V208.787ZM454.855 201.994C454.855 189.516 452.35 179.953 447.34 173.305C442.329 166.608 435.32 163.26 426.311 163.26C417.542 163.26 410.629 166.608 405.57 173.305C400.56 179.953 397.982 189.203 397.838 201.055V208.787C397.838 220.88 400.367 230.395 405.426 237.332C410.533 244.221 417.542 247.666 426.455 247.666C435.416 247.666 442.354 244.414 447.268 237.91C452.182 231.358 454.711 221.988 454.855 209.799V201.994Z" fill="black"/>
</g>
<defs>
<clipPath id="clip0">
<rect width="512" height="512" fill="white"/>
</clipPath>
</defs>
</svg>
