<svg width="512" height="512" viewBox="0 0 512 512" fill="none" xmlns="http://www.w3.org/2000/svg">
<path d="M276.232 200.896C269.922 200.2 265.488 200 260 200C254.592 200 249.264 200.304 244 200.856V136H222.584L206.584 176H201.416L185.416 136H164V234.28C158.832 238.504 154.024 243.136 149.456 248H92C56.712 248 28 219.288 28 184C28 148.712 56.712 120 92 120C94.728 120 97.632 120.232 101.152 120.736L108.672 121.808L110.136 114.352C120.392 62 166.6 24 220 24C266.56 24 307.528 52.12 324.376 95.64L327.312 103.24L334.856 100.16C341.624 97.4 348.744 96 356 96C373.992 96 391.024 104.792 401.544 119.512L404.832 124.112L410.264 122.552C416.152 120.856 422.112 120 428 120C463.288 120 492 148.712 492 184C492 219.288 463.288 248 428 248H370.544C365.104 242.216 360.29 237.692 352.952 232C341.309 222.968 329.628 217.294 320.5 212.75V136H299.084L276.684 195.384H293.916L304.5 168.92V206.84C294.444 204.192 287.445 202.133 276.232 200.896Z" fill="white"/>
<path d="M260 488C185.008 488 124 426.992 124 352C124 277.008 185.008 216 260 216C334.992 216 396 277.008 396 352C396 426.992 334.992 488 260 488Z" fill="white"/>
<path d="M228 203.456C210.704 207.176 194.568 213.928 180 223V165.544L190.584 192H217.416L228 165.536V203.456Z" fill="white"/>
<path fill-rule="evenodd" clip-rule="evenodd" d="M428 104C472.112 104 508 139.888 508 184C508 228.112 472.112 264 428 264H383.704C401.448 288.864 412 319.192 412 352C412 435.816 343.816 504 260 504C176.184 504 108 435.816 108 352C108 319.192 118.552 288.864 136.296 264H92C47.888 264 12 228.112 12 184C12 139.888 47.888 104 92 104C93.32 104 94.664 104.04 96.048 104.128C110.432 48 161.432 8 220 8C270.64 8 315.496 37.096 336.304 82.752C342.704 80.928 349.304 80 356 80C377.304 80 397.536 89.56 411.168 105.832C416.76 104.616 422.4 104 428 104ZM124 352C124 426.992 185.008 488 260 488C334.992 488 396 426.992 396 352C396 277.008 334.992 216 260 216C185.008 216 124 277.008 124 352ZM180 223C194.568 213.928 210.704 207.176 228 203.456V165.536L217.416 192H190.584L180 165.544V223ZM260 200C265.488 200 269.922 200.2 276.232 200.896C287.445 202.133 294.444 204.192 304.5 206.84V168.92L293.916 195.384H276.684L299.084 136H320.5V212.75C329.628 217.294 341.309 222.968 352.952 232C360.29 237.692 365.104 242.216 370.544 248H428C463.288 248 492 219.288 492 184C492 148.712 463.288 120 428 120C422.112 120 416.152 120.856 410.264 122.552L404.832 124.112L401.544 119.512C391.024 104.792 373.992 96 356 96C348.744 96 341.624 97.4 334.856 100.16L327.312 103.24L324.376 95.64C307.528 52.12 266.56 24 220 24C166.6 24 120.392 62 110.136 114.352L108.672 121.808L101.152 120.736C97.632 120.232 94.728 120 92 120C56.712 120 28 148.712 28 184C28 219.288 56.712 248 92 248H149.456C154.024 243.136 158.832 238.504 164 234.28V136H185.416L201.416 176H206.584L222.584 136H244V200.856C249.264 200.304 254.592 200 260 200Z" fill="black"/>
<path d="M116 136H84V232H100V200H116C133.648 200 148 185.648 148 168C148 150.352 133.648 136 116 136ZM116 184H100V152H116C124.824 152 132 159.176 132 168C132 176.824 124.824 184 116 184Z" fill="black"/>
<path fill-rule="evenodd" clip-rule="evenodd" d="M385.331 136C364.692 136 352.001 151.79 352.001 184.251C352.001 215.916 364.692 232 385.331 232C405.969 232 420.999 215.916 420.999 184.251C420.999 151.79 405.969 136 385.331 136ZM385.331 151.79C375.011 151.79 367 157.924 367 184.251C367 207 375.011 215.916 385.331 215.916C395.65 215.916 404.353 207.5 404.627 184.251C404.913 160 395.65 151.79 385.331 151.79Z" fill="black"/>
<path d="M234.544 57.32C239.52 58.24 244.408 59.632 249.08 61.456L254.912 46.56C249.296 44.36 243.416 42.696 237.448 41.592L234.544 57.32Z" fill="black"/>
<path d="M125.584 118.552L141.32 121.44C148.288 83.52 181.376 56 220 56V40C173.656 40 133.944 73.032 125.584 118.552V118.552Z" fill="black"/>
<path d="M268 352C268 382.88 293.128 408 324 408C354.872 408 380 382.88 380 352C380 321.12 354.872 296 324 296C293.128 296 268 321.12 268 352ZM364 352C364 374.056 346.056 392 324 392C301.944 392 284 374.056 284 352C284 329.944 301.944 312 324 312C346.056 312 364 329.944 364 352Z" fill="black"/>
<path d="M236 296H172C163.176 296 156 303.176 156 312V328C156 336.824 163.176 344 172 344H236C244.824 344 252 336.824 252 328V312C252 303.176 244.824 296 236 296ZM172 328V312H236L236.008 328H172Z" fill="black"/>
<path d="M156 360H252V376H156V360Z" fill="black"/>
<path d="M156 392H252V408H156V392Z" fill="black"/>
<path d="M443.592 312.4L432.28 323.712C439.832 331.272 444 341.32 444 352C444 362.68 439.832 372.728 432.28 380.288L443.592 391.6C454.168 381.016 460 366.96 460 352C460 337.04 454.168 322.984 443.592 312.4Z" fill="black"/>
<path d="M454.912 301.088C482.984 329.16 482.984 374.84 454.912 402.92L466.224 414.232C500.536 379.92 500.536 324.088 466.224 289.776L454.912 301.088Z" fill="black"/>
<path d="M76.408 312.4C65.832 322.984 60 337.04 60 352C60 366.96 65.832 381.016 76.408 391.6L87.72 380.288C80.168 372.728 76 362.68 76 352C76 341.32 80.168 331.272 87.72 323.712L76.408 312.4Z" fill="black"/>
<path d="M65.088 301.088L53.776 289.776C19.464 324.088 19.464 379.92 53.776 414.232L65.088 402.92C37.016 374.84 37.016 329.16 65.088 301.088Z" fill="black"/>
</svg>
