<svg width="512" height="512" viewBox="0 0 512 512" fill="none" xmlns="http://www.w3.org/2000/svg">
<path d="M348.952 232H352V216H323.472C314.344 211.456 304.712 207.824 294.656 205.176L305.744 197.784C314.672 191.832 320 181.88 320 171.16V168C320 150.352 305.648 136 288 136C270.352 136 256 150.352 256 168V176H272V168C272 159.176 279.176 152 288 152C296.824 152 304 159.176 304 168V171.16C304 176.52 301.336 181.496 296.872 184.472L272.232 200.896C266.896 200.328 261.488 200 256 200C250.592 200 245.264 200.304 240 200.856V136H218.584L202.584 176H197.416L181.416 136H160V234.28C154.832 238.504 150.024 243.136 145.456 248H88C52.712 248 24 219.288 24 184C24 148.712 52.712 120 88 120C90.728 120 93.632 120.232 97.152 120.736L104.672 121.808L106.136 114.352C116.392 62 162.6 24 216 24C262.56 24 303.528 52.12 320.376 95.64L323.312 103.24L330.856 100.16C337.624 97.4 344.744 96 352 96C369.992 96 387.024 104.792 397.544 119.512L400.832 124.112L406.264 122.552C412.152 120.856 418.112 120 424 120C459.288 120 488 148.712 488 184C488 219.288 459.288 248 424 248H366.544C361.104 242.216 355.232 236.872 348.952 232Z" fill="white"/>
<path d="M224 203.456C206.704 207.176 190.568 213.928 176 223V165.544L186.584 192H213.416L224 165.536V203.456Z" fill="white"/>
<path d="M256 488C181.008 488 120 426.992 120 352C120 277.008 181.008 216 256 216C330.992 216 392 277.008 392 352C392 426.992 330.992 488 256 488Z" fill="white"/>
<path d="M504 184C504 139.888 468.112 104 424 104C418.4 104 412.76 104.616 407.168 105.832C393.536 89.56 373.304 80 352 80C345.304 80 338.704 80.928 332.304 82.752C311.496 37.096 266.64 8 216 8C157.432 8 106.432 48 92.048 104.128C90.664 104.04 89.32 104 88 104C43.888 104 8 139.888 8 184C8 228.112 43.888 264 88 264H132.296C114.552 288.864 104 319.192 104 352C104 435.816 172.184 504 256 504C339.816 504 408 435.816 408 352C408 319.192 397.448 288.864 379.704 264H424C468.112 264 504 228.112 504 184ZM256 488C181.008 488 120 426.992 120 352C120 277.008 181.008 216 256 216C330.992 216 392 277.008 392 352C392 426.992 330.992 488 256 488ZM224 203.456C206.704 207.176 190.568 213.928 176 223V165.544L186.584 192H213.416L224 165.536V203.456ZM348.952 232H352V216H323.472C314.344 211.456 304.712 207.824 294.656 205.176L305.744 197.784C314.672 191.832 320 181.88 320 171.16V168C320 150.352 305.648 136 288 136C270.352 136 256 150.352 256 168V176H272V168C272 159.176 279.176 152 288 152C296.824 152 304 159.176 304 168V171.16C304 176.52 301.336 181.496 296.872 184.472L272.232 200.896C266.896 200.328 261.488 200 256 200C250.592 200 245.264 200.304 240 200.856V136H218.584L202.584 176H197.416L181.416 136H160V234.28C154.832 238.504 150.024 243.136 145.456 248H88C52.712 248 24 219.288 24 184C24 148.712 52.712 120 88 120C90.728 120 93.632 120.232 97.152 120.736L104.672 121.808L106.136 114.352C116.392 62 162.6 24 216 24C262.56 24 303.528 52.12 320.376 95.64L323.312 103.24L330.856 100.16C337.624 97.4 344.744 96 352 96C369.992 96 387.024 104.792 397.544 119.512L400.832 124.112L406.264 122.552C412.152 120.856 418.112 120 424 120C459.288 120 488 148.712 488 184C488 219.288 459.288 248 424 248H366.544C361.104 242.216 355.232 236.872 348.952 232V232Z" fill="black"/>
<path d="M112 136H80V232H96V200H112C129.648 200 144 185.648 144 168C144 150.352 129.648 136 112 136ZM112 184H96V152H112C120.824 152 128 159.176 128 168C128 176.824 120.824 184 112 184Z" fill="black"/>
<path d="M392 168H376V152H424V136H360V184H392C400.824 184 408 191.176 408 200C408 208.824 400.824 216 392 216C383.176 216 376 208.824 376 200H360C360 217.648 374.352 232 392 232C409.648 232 424 217.648 424 200C424 182.352 409.648 168 392 168Z" fill="black"/>
<path d="M230.544 57.32C235.52 58.24 240.408 59.632 245.08 61.456L250.912 46.56C245.296 44.36 239.416 42.696 233.448 41.592L230.544 57.32Z" fill="black"/>
<path d="M121.584 118.552L137.32 121.44C144.288 83.52 177.376 56 216 56V40C169.656 40 129.944 73.032 121.584 118.552V118.552Z" fill="black"/>
<path d="M264 352C264 382.88 289.128 408 320 408C350.872 408 376 382.88 376 352C376 321.12 350.872 296 320 296C289.128 296 264 321.12 264 352ZM360 352C360 374.056 342.056 392 320 392C297.944 392 280 374.056 280 352C280 329.944 297.944 312 320 312C342.056 312 360 329.944 360 352Z" fill="black"/>
<path d="M232 296H168C159.176 296 152 303.176 152 312V328C152 336.824 159.176 344 168 344H232C240.824 344 248 336.824 248 328V312C248 303.176 240.824 296 232 296ZM168 328V312H232L232.008 328H168Z" fill="black"/>
<path d="M152 360H248V376H152V360Z" fill="black"/>
<path d="M152 392H248V408H152V392Z" fill="black"/>
<path d="M439.592 312.4L428.28 323.712C435.832 331.272 440 341.32 440 352C440 362.68 435.832 372.728 428.28 380.288L439.592 391.6C450.168 381.016 456 366.96 456 352C456 337.04 450.168 322.984 439.592 312.4Z" fill="black"/>
<path d="M450.912 301.088C478.984 329.16 478.984 374.84 450.912 402.92L462.224 414.232C496.536 379.92 496.536 324.088 462.224 289.776L450.912 301.088Z" fill="black"/>
<path d="M72.408 312.4C61.832 322.984 56 337.04 56 352C56 366.96 61.832 381.016 72.408 391.6L83.72 380.288C76.168 372.728 72 362.68 72 352C72 341.32 76.168 331.272 83.72 323.712L72.408 312.4Z" fill="black"/>
<path d="M61.088 301.088L49.776 289.776C15.464 324.088 15.464 379.92 49.776 414.232L61.088 402.92C33.016 374.84 33.016 329.16 61.088 301.088Z" fill="black"/>
</svg>
