<svg width="512" height="512" viewBox="0 0 512 512" fill="none" xmlns="http://www.w3.org/2000/svg">
<g clip-path="url(#clip0)">
<mask id="mask0" mask-type="alpha" maskUnits="userSpaceOnUse" x="0" y="0" width="512" height="512">
<path fill-rule="evenodd" clip-rule="evenodd" d="M512 0H0V512H512V0ZM293.781 227.504C293.781 229.579 293.975 231.579 294.363 233.504C295.119 237.256 296.611 240.724 298.84 243.908C302.26 248.726 307.102 252.532 313.365 255.326C319.628 258.072 326.373 259.445 333.6 259.445C344.729 259.445 353.617 256.892 360.266 251.785C366.914 246.63 370.238 239.789 370.238 231.262C370.238 225.914 369.034 221.265 366.625 217.314C364.264 213.364 360.603 209.919 355.641 206.98C350.727 203.993 343.885 201.271 335.117 198.814C326.397 196.357 320.206 193.66 316.545 190.721C312.932 187.734 311.125 184.096 311.125 179.809C311.125 174.461 313.028 170.294 316.834 167.307C320.688 164.271 326.036 162.754 332.877 162.754C340.248 162.754 345.957 164.585 350.004 168.246C354.051 171.859 356.074 176.846 356.074 183.205H370.021C370.021 181.148 369.827 179.148 369.437 177.205C368.722 173.642 367.351 170.27 365.324 167.09C362.241 162.176 357.857 158.322 352.172 155.527C346.535 152.733 340.104 151.336 332.877 151.336C322.278 151.336 313.654 154.058 307.006 159.502C300.406 164.898 297.105 171.739 297.105 180.025C297.105 187.348 299.803 193.515 305.199 198.525C310.643 203.488 319.315 207.679 331.215 211.1C340.706 213.846 347.258 216.64 350.871 219.482C354.484 222.277 356.291 226.251 356.291 231.406C356.291 236.561 354.34 240.632 350.438 243.619C346.535 246.606 340.923 248.1 333.6 248.1C325.747 248.1 319.46 246.269 314.738 242.607C310.065 238.898 307.729 233.863 307.729 227.504H293.781ZM376.238 231.262C376.238 224.996 374.819 219.238 371.761 214.213C368.779 209.233 364.314 205.149 358.728 201.835C353.161 198.457 345.748 195.563 336.739 193.038C328.247 190.645 323.031 188.218 320.334 186.068C317.979 184.109 317.125 182.115 317.125 179.809C317.125 176.081 318.348 173.746 320.538 172.027L320.546 172.02C322.994 170.092 326.86 168.754 332.877 168.754C339.289 168.754 343.372 170.337 345.978 172.695L345.993 172.709L346.008 172.722C348.557 174.998 350.074 178.232 350.074 183.205V189.205H376.021V183.205C376.021 176.241 374.134 169.756 370.395 163.882C366.668 157.95 361.406 153.382 354.828 150.147C348.25 146.888 340.887 145.336 332.877 145.336C321.227 145.336 311.159 148.347 303.206 154.858C295.26 161.355 291.105 169.88 291.105 180.025C291.105 189.027 294.506 196.784 301.117 202.922L301.137 202.941L301.157 202.96C307.597 208.829 317.297 213.342 329.555 216.865C338.956 219.586 344.527 222.126 347.161 224.198L347.181 224.214L347.201 224.229C349.142 225.73 350.291 227.837 350.291 231.406C350.291 234.8 349.127 237.066 346.791 238.855C344.338 240.732 340.221 242.1 333.6 242.1C326.677 242.1 321.821 240.496 318.442 237.887C315.326 235.402 313.729 232.158 313.729 227.504V221.504H287.781V227.504C287.781 234.801 289.816 241.48 293.924 247.349L293.936 247.365L293.948 247.382C298.084 253.207 303.837 257.645 310.921 260.806L310.938 260.813L310.956 260.821C318.021 263.919 325.592 265.445 333.6 265.445C345.619 265.445 355.926 262.684 363.921 256.543L363.931 256.535L363.942 256.527C372.08 250.217 376.238 241.614 376.238 231.262ZM469.288 238.29L469.294 238.277C473.179 229.644 475.025 219.763 475.025 208.787V202.139C475.025 191.21 473.178 181.358 469.298 172.731C465.405 164.028 459.71 157.157 452.144 152.408C444.674 147.641 436.116 145.336 426.678 145.336C417.34 145.336 408.828 147.687 401.328 152.498C393.83 157.292 388.149 164.17 384.213 172.85C380.283 181.518 378.402 191.325 378.402 202.139V209.756L378.403 209.785C378.506 220.404 380.443 230.017 384.382 238.489L384.391 238.51L384.401 238.53C388.402 246.964 394.106 253.673 401.55 258.431L401.564 258.439L401.577 258.448C409.033 263.157 417.512 265.445 426.822 265.445C436.296 265.445 444.863 263.171 452.301 258.437C459.756 253.693 465.396 246.885 469.288 238.29ZM448.936 157.479C455.391 161.525 460.354 167.427 463.822 175.184C467.291 182.892 469.025 191.877 469.025 202.139V208.787C469.025 219.097 467.291 228.106 463.822 235.814C460.354 243.475 455.439 249.328 449.08 253.375C442.721 257.422 435.301 259.445 426.822 259.445C418.536 259.445 411.189 257.422 404.781 253.375C398.374 249.28 393.387 243.475 389.822 235.959C386.305 228.395 384.499 219.651 384.402 209.727V202.139C384.402 192.021 386.161 183.085 389.678 175.328C393.195 167.572 398.157 161.646 404.564 157.551C411.02 153.408 418.391 151.336 426.678 151.336C435.109 151.336 442.528 153.383 448.936 157.479ZM455.223 201.994C455.223 189.516 452.717 179.953 447.707 173.305C442.697 166.608 435.687 163.26 426.678 163.26C417.91 163.26 410.996 166.608 405.938 173.305C400.927 179.953 398.35 189.203 398.205 201.055V208.787C398.205 220.88 400.734 230.395 405.793 237.332C410.9 244.221 417.91 247.666 426.822 247.666C435.783 247.666 442.721 244.414 447.635 237.91C452.549 231.358 455.078 221.988 455.223 209.799V201.994ZM404.205 201.092C404.345 190.015 406.756 182.189 410.727 176.918C414.594 171.802 419.694 169.26 426.678 169.26C433.965 169.26 439.123 171.847 442.903 176.899L442.909 176.907L442.915 176.916C446.837 182.119 449.223 190.201 449.223 201.994V209.763C449.082 221.245 446.691 229.163 442.84 234.303C439.185 239.136 434.113 241.666 426.822 241.666C419.731 241.666 414.549 239.059 410.627 233.778C406.576 228.211 404.205 220.1 404.205 208.787V201.092Z" fill="black"/>
</mask>
<g mask="url(#mask0)">
<path d="M510.864 133.632C508.515 129.545 503.299 128.138 499.214 130.484L429.029 170.813C426.415 168.663 432.189 172.22 341.867 120.076C340.331 119.189 338.72 118.48 337.067 117.938V76.2544C351.772 72.4561 362.667 59.0769 362.667 43.2018C362.667 24.3806 347.355 9.06872 328.533 9.06872C309.712 9.06872 294.4 24.3806 294.4 43.2018C294.4 47.9143 298.221 51.7351 302.934 51.7351C307.646 51.7351 311.467 47.9143 311.467 43.2018C311.467 33.7918 319.123 26.1353 328.533 26.1353C337.944 26.1353 345.6 33.7918 345.6 43.2018C345.6 52.6119 337.944 60.2684 328.533 60.2684C323.821 60.2684 320 64.0892 320 68.8017V118.325C317.122 119.411 324.322 115.432 232.534 168.421C231.225 169.178 230.007 170.05 228.871 171.008C163.479 133.254 168.197 135.668 165.836 135.336C162.488 134.866 159.153 136.434 157.381 139.316C143.474 161.953 119.333 175.468 92.8015 175.468C51.0429 175.468 17.0687 141.493 17.0687 99.7348C17.0687 57.9761 51.0429 24.002 92.8015 24.002C136.312 24.002 170.981 60.7281 168.4 104.295C168.123 109 171.711 113.038 176.416 113.317C181.125 113.605 185.159 110.006 185.438 105.302C188.617 51.6541 145.823 6.93646 92.8026 6.93646C41.6328 6.93646 0.00319084 48.5661 0.00319084 99.7359C0.00319084 150.906 41.6328 192.535 92.8026 192.535C122.518 192.535 149.778 178.696 167.255 155.14L220.212 185.715C219.9 187.308 219.735 188.939 219.735 190.592C219.735 296.683 219.62 288.26 220.005 290.921L160.782 324.951C156.699 327.296 155.237 332.557 157.705 336.705C158.473 338.086 158.91 339.442 158.91 341.092V399.581C158.91 402.62 157.275 405.452 154.643 406.971L103.99 436.216C101.358 437.736 98.0879 437.736 95.4565 436.216L44.8029 406.971C42.1715 405.452 40.5363 402.62 40.5363 399.581V341.092C40.5363 338.053 42.1715 335.222 44.8029 333.702L95.4554 304.458C98.0879 302.939 101.358 302.939 103.989 304.458L125.868 317.09C129.948 319.447 135.167 318.047 137.524 313.967C139.881 309.886 138.482 304.667 134.401 302.311C110.374 288.438 111.107 288.652 107.735 287.544V244.802C107.735 240.089 103.914 236.268 99.2015 236.268C94.489 236.268 90.6682 240.089 90.6682 244.802V287.919C87.816 288.994 91.385 287.101 36.2686 318.922C28.3731 323.48 23.4686 331.974 23.4686 341.091C23.4686 404.64 23.3225 400.644 23.811 403.654L4.2837 414.873C0.197323 417.221 -1.21173 422.437 1.13598 426.523C3.49224 430.623 8.71247 432.011 12.786 429.671L31.9891 418.637C34.8414 421.2 32.2803 419.45 86.9221 450.996C88.1296 451.692 89.385 452.27 90.6682 452.753V496.531C90.6682 501.244 94.489 505.065 99.2015 505.065C103.914 505.065 107.735 501.244 107.735 496.531V453.129C111.31 451.955 108.508 453.312 163.176 421.75C171.071 417.192 175.975 408.696 175.975 399.579C175.975 336.001 176.164 339.59 175.495 336.177L227.944 306.04C229.331 307.328 230.86 308.479 232.533 309.446C324.205 362.375 317.13 358.459 319.999 359.542V420.811C305.294 424.61 294.399 437.989 294.399 453.864C294.399 472.685 309.711 487.997 328.532 487.997C347.354 487.997 362.665 472.685 362.665 453.864C362.665 449.151 358.845 445.331 354.132 445.331C349.42 445.331 345.599 449.151 345.599 453.864C345.599 463.274 337.942 470.93 328.532 470.93C319.122 470.93 311.466 463.274 311.466 453.864C311.466 444.454 319.122 436.797 328.532 436.797C333.245 436.797 337.066 432.976 337.066 428.264V359.926C338.719 359.384 340.33 358.675 341.866 357.789C433.16 305.084 426.918 308.916 429.587 306.595L461.132 324.809C465.199 327.157 470.425 325.78 472.789 321.685C475.145 317.604 473.746 312.385 469.665 310.029L431.942 288.25C428.072 286.014 422.805 287.018 420.188 291.543C419.441 292.839 418.36 293.918 417.065 294.666L333.332 343.009C330.7 344.528 327.43 344.528 324.799 343.009L241.066 294.666C238.435 293.147 236.8 290.315 236.8 287.276V190.591C236.8 187.552 238.435 184.72 241.066 183.201L324.799 134.858C327.43 133.338 330.7 133.339 333.332 134.858L417.065 183.201C419.697 184.72 421.332 187.552 421.332 190.591V251.235C421.332 255.947 425.153 259.768 429.865 259.768C434.578 259.768 438.398 255.947 438.398 251.235C438.398 185.665 438.621 189.073 437.863 185.421L507.716 145.283C511.803 142.935 513.212 137.719 510.864 133.632V133.632Z" fill="black"/>
<path d="M138.667 78.4006C138.667 73.6881 134.846 69.8673 130.134 69.8673H55.4674C50.7549 69.8673 46.9341 73.6881 46.9341 78.4006C46.9341 83.1131 50.7549 86.9338 55.4674 86.9338H130.134C134.847 86.9338 138.667 83.1141 138.667 78.4006Z" fill="black"/>
<path d="M55.4674 112.534C50.7549 112.534 46.9341 116.354 46.9341 121.067C46.9341 125.779 50.7549 129.6 55.4674 129.6H108.8C113.513 129.6 117.334 125.779 117.334 121.067C117.334 116.354 113.513 112.534 108.8 112.534H55.4674Z" fill="black"/>
</g>
<path d="M504.168 270H472.958V265.649L489.447 247.329C491.889 244.559 493.569 242.312 494.485 240.589C495.423 238.845 495.892 237.045 495.892 235.191C495.892 232.705 495.139 230.666 493.634 229.074C492.129 227.482 490.123 226.686 487.615 226.686C484.605 226.686 482.26 227.547 480.581 229.27C478.924 230.971 478.095 233.348 478.095 236.402H472.042C472.042 232.018 473.449 228.474 476.263 225.77C479.098 223.065 482.882 221.713 487.615 221.713C492.042 221.713 495.543 222.88 498.116 225.213C500.69 227.525 501.977 230.611 501.977 234.472C501.977 239.161 498.989 244.744 493.013 251.222L480.254 265.06H504.168V270Z" fill="black"/>
<path d="M331.215 211.1C319.315 207.679 310.643 203.488 305.199 198.525C299.803 193.515 297.105 187.348 297.105 180.025C297.105 171.739 300.406 164.898 307.006 159.502C313.654 154.058 322.278 151.336 332.877 151.336C340.104 151.336 346.535 152.733 352.172 155.527C357.857 158.322 362.241 162.176 365.324 167.09C368.456 172.004 370.021 177.376 370.021 183.205H356.074C356.074 176.846 354.051 171.859 350.004 168.246C345.957 164.585 340.248 162.754 332.877 162.754C326.036 162.754 320.688 164.271 316.834 167.307C313.028 170.294 311.125 174.461 311.125 179.809C311.125 184.096 312.932 187.734 316.545 190.721C320.206 193.66 326.397 196.357 335.117 198.814C343.885 201.271 350.727 203.993 355.641 206.98C360.603 209.919 364.264 213.364 366.625 217.314C369.034 221.265 370.238 225.914 370.238 231.262C370.238 239.789 366.914 246.63 360.266 251.785C353.617 256.892 344.729 259.445 333.6 259.445C326.373 259.445 319.628 258.072 313.365 255.326C307.102 252.532 302.26 248.726 298.84 243.908C295.467 239.09 293.781 233.622 293.781 227.504H307.729C307.729 233.863 310.065 238.898 314.738 242.607C319.46 246.269 325.747 248.1 333.6 248.1C340.923 248.1 346.535 246.606 350.438 243.619C354.34 240.632 356.291 236.561 356.291 231.406C356.291 226.251 354.484 222.277 350.871 219.482C347.258 216.64 340.706 213.846 331.215 211.1ZM469.025 208.787C469.025 219.097 467.291 228.106 463.822 235.814C460.354 243.475 455.439 249.328 449.08 253.375C442.721 257.422 435.301 259.445 426.822 259.445C418.536 259.445 411.189 257.422 404.781 253.375C398.374 249.28 393.387 243.475 389.822 235.959C386.305 228.395 384.499 219.651 384.402 209.727V202.139C384.402 192.021 386.161 183.085 389.678 175.328C393.195 167.572 398.157 161.646 404.564 157.551C411.02 153.408 418.391 151.336 426.678 151.336C435.109 151.336 442.528 153.383 448.936 157.479C455.391 161.525 460.354 167.427 463.822 175.184C467.291 182.892 469.025 191.877 469.025 202.139V208.787ZM455.223 201.994C455.223 189.516 452.717 179.953 447.707 173.305C442.697 166.608 435.687 163.26 426.678 163.26C417.91 163.26 410.996 166.608 405.938 173.305C400.927 179.953 398.35 189.203 398.205 201.055V208.787C398.205 220.88 400.734 230.395 405.793 237.332C410.9 244.221 417.91 247.666 426.822 247.666C435.783 247.666 442.721 244.414 447.635 237.91C452.549 231.358 455.078 221.988 455.223 209.799V201.994Z" fill="black"/>
</g>
<defs>
<clipPath id="clip0">
<rect width="512" height="512" fill="white"/>
</clipPath>
</defs>
</svg>
