<svg width="389" height="389" viewBox="0 0 389 389" fill="none" xmlns="http://www.w3.org/2000/svg">
<circle cx="194.5" cy="194.5" r="162.5" fill="#A8E2F4"/>
<path d="M215.5 226.65C175.363 250.778 123.03 248.685 77 226.65C126.683 270.014 178.5 266.5 227.5 246.746C258 234.45 309.191 242.287 357.5 276.65C305.909 239.953 255.637 202.521 215.5 226.65Z" fill="#C4C4C4"/>
<path d="M215.5 149.65C175.363 173.778 123.03 171.685 77 149.65C126.683 193.014 178.5 189.5 227.5 169.746C258 157.45 309.191 165.287 357.5 199.65C305.909 162.953 255.637 125.521 215.5 149.65Z" fill="#C4C4C4"/>
<path d="M42 183.5C42 152.5 52.8 125.9 74.4 103.7C96.2 81.5 122.9 70.4 154.5 70.4C186.1 70.4 211.9 80.4 231.9 100.4C251.9 120.2 261.9 146.3 261.9 178.7C261.9 203.7 254.8 225.9 240.6 245.3C226.6 264.7 208.3 278.1 185.7 285.5C183.1 286.3 179.5 286.9 174.9 287.3C197.1 291.7 218.8 299.5 240 310.7C247.4 314.7 256.6 318.2 267.6 321.2C278.8 324.2 288.6 325.7 297 325.7C313.4 325.7 327.5 323.3 339.3 318.5C339.5 318.3 339.8 318.2 340.2 318.2C340.8 318.2 341.3 318.4 341.7 318.8L347.7 326.3C328.1 338.7 305.8 344.9 280.8 344.9C268.8 344.9 257.1 343.4 245.7 340.4C234.3 337.6 225.2 334.5 218.4 331.1C211.6 327.9 203.1 323.5 192.9 317.9C182.7 312.3 172.4 307.1 162 302.3C151.8 297.5 135.7 291.8 113.7 285.2C91.9 278.6 74.5 266.4 61.5 248.6C48.5 230.6 42 208.9 42 183.5ZM159 275.6C181.2 275.6 198.6 267.5 211.2 251.3C224 234.9 230.4 214.3 230.4 189.5C230.4 148.1 218 118 193.2 99.2C180.4 89.4 164.8 84.5 146.4 84.5C124.2 84.5 106.5 92.9 93.3 109.7C80.1 126.5 73.5 147.2 73.5 171.8C73.5 199.4 80.2 223.2 93.6 243.2C100.2 253.2 109.1 261.1 120.3 266.9C131.7 272.7 144.6 275.6 159 275.6Z" fill="#56AAC5"/>
<path d="M215.5 188.65C175.363 212.778 123.03 210.685 77 188.65C126.683 232.014 178.5 228.5 227.5 208.746C258 196.45 309.191 204.287 357.5 238.65C305.909 201.953 255.637 164.521 215.5 188.65Z" fill="#C4C4C4"/>
</svg>
